<?xml version="1.0" standalone="no"?>
<!DOCTYPE svg PUBLIC "-//W3C//DTD SVG 20010904//EN"
 "http://www.w3.org/TR/2001/REC-SVG-20010904/DTD/svg10.dtd">
<svg version="1.0" xmlns="http://www.w3.org/2000/svg"
 width="600.000000pt" height="600.000000pt" viewBox="0 0 600.000000 600.000000"
 preserveAspectRatio="xMidYMid meet">

<g transform="translate(0.000000,600.000000) scale(0.100000,-0.100000)"
fill="#000000" stroke="none">
<path d="M0 3000 l0 -3000 3000 0 3000 0 0 3000 0 3000 -3000 0 -3000 0 0
-3000z m2625 1399 c280 -33 565 -219 781 -509 37 -50 74 -90 83 -90 9 0 38 7
65 15 173 53 437 64 581 26 230 -61 374 -206 430 -431 25 -101 30 -314 11
-451 -15 -108 -57 -296 -90 -400 l-14 -47 241 1 c191 0 258 -3 317 -16 158
-35 230 -95 230 -190 0 -68 -23 -111 -99 -188 -158 -157 -516 -342 -1020 -526
-96 -34 -182 -63 -191 -63 -9 0 -34 13 -56 30 l-41 29 -6 192 c-6 157 -32 477
-40 485 -4 4 -418 -76 -582 -112 -633 -139 -1385 -361 -1871 -553 -99 -39
-184 -71 -188 -71 -4 0 -27 14 -52 30 l-44 31 0 152 c0 369 54 815 141 1167
143 579 380 1006 702 1266 93 74 284 172 387 199 58 14 158 30 215 34 11 0 61
-4 110 -10z"/>
<path d="M2339 4230 c-376 -93 -687 -468 -890 -1073 -89 -265 -158 -585 -194
-902 -19 -168 -33 -386 -24 -383 4 2 74 93 157 203 625 831 1276 1394 1920
1661 l24 10 -48 64 c-165 227 -352 367 -558 420 -104 26 -279 26 -387 0z"/>
<path d="M3814 3710 c-70 -8 -145 -22 -216 -41 l-38 -10 60 -119 c138 -276
232 -571 300 -945 26 -146 28 -150 51 -148 71 7 333 44 337 48 11 11 74 237
99 354 23 109 27 149 27 301 0 163 -2 181 -26 254 -15 44 -43 103 -64 133 -43
62 -133 126 -209 148 -49 15 -202 36 -235 34 -8 -1 -47 -5 -86 -9z"/>
<path d="M3300 3561 c-399 -178 -747 -428 -1141 -821 -193 -192 -326 -340
-489 -544 -128 -159 -319 -420 -311 -424 4 -1 72 21 151 49 652 229 1434 438
2120 565 80 15 148 29 152 33 21 18 -95 512 -174 739 -64 186 -171 431 -195
445 -5 3 -55 -16 -113 -42z"/>
<path d="M4600 2364 c-25 -2 -77 -6 -116 -10 l-71 -5 -33 -82 c-52 -129 -131
-292 -198 -409 -33 -60 -56 -108 -51 -108 6 0 78 27 162 61 188 75 447 199
585 282 115 68 232 168 232 198 0 23 -37 43 -110 58 -56 13 -318 22 -400 15z"/>
<path d="M4088 2311 c-59 -9 -110 -19 -114 -23 -4 -4 -2 -72 5 -150 6 -79 14
-176 17 -217 l6 -73 35 58 c62 102 203 392 203 415 0 12 -22 10 -152 -10z"/>
</g>
</svg>
